<svg xmlns="http://www.w3.org/2000/svg" width="192" height="192" viewBox="0 0 192 192" fill="none">
  <rect width="192" height="192" rx="36" fill="#0A2540"/>
  <circle cx="96" cy="96" r="24" fill="#22D3EE"/>
  <circle cx="96" cy="96" r="12" fill="#0A2540"/>
  <circle cx="96" cy="34" r="12" fill="#7DD3FC"/>
  <circle cx="96" cy="158" r="12" fill="#7DD3FC"/>
  <circle cx="34" cy="96" r="12" fill="#7DD3FC"/>
  <circle cx="158" cy="96" r="12" fill="#7DD3FC"/>
  <circle cx="52" cy="52" r="10" fill="#38BDF8"/>
  <circle cx="140" cy="52" r="10" fill="#38BDF8"/>
  <circle cx="52" cy="140" r="10" fill="#38BDF8"/>
  <circle cx="140" cy="140" r="10" fill="#38BDF8"/>
  <path d="M96 72V46" stroke="#BAE6FD" stroke-width="6" stroke-linecap="round"/>
  <path d="M96 120V146" stroke="#BAE6FD" stroke-width="6" stroke-linecap="round"/>
  <path d="M72 96H46" stroke="#BAE6FD" stroke-width="6" stroke-linecap="round"/>
  <path d="M120 96H146" stroke="#BAE6FD" stroke-width="6" stroke-linecap="round"/>
  <path d="M79.03 79.03L59.07 59.07" stroke="#67E8F9" stroke-width="5" stroke-linecap="round"/>
  <path d="M112.97 79.03L132.93 59.07" stroke="#67E8F9" stroke-width="5" stroke-linecap="round"/>
  <path d="M79.03 112.97L59.07 132.93" stroke="#67E8F9" stroke-width="5" stroke-linecap="round"/>
  <path d="M112.97 112.97L132.93 132.93" stroke="#67E8F9" stroke-width="5" stroke-linecap="round"/>
</svg>
